<?xml version="1.0" standalone="no"?>
<!DOCTYPE svg PUBLIC "-//W3C//DTD SVG 20010904//EN"
 "http://www.w3.org/TR/2001/REC-SVG-20010904/DTD/svg10.dtd">
<svg version="1.0" xmlns="http://www.w3.org/2000/svg"
 width="500.000000pt" height="500.000000pt" viewBox="0 0 500.000000 500.000000"
 preserveAspectRatio="xMidYMid meet">
<metadata>
Created by potrace 1.14, written by Peter Selinger 2001-2017
</metadata>
<g transform="translate(0.000000,500.000000) scale(0.100000,-0.100000)"
fill="#000000" stroke="none">
<path d="M1930 4761 c-89 -173 -135 -205 -305 -214 -60 -4 -126 -10 -145 -16
-92 -24 -90 -25 -90 13 l0 35 -52 -35 c-29 -19 -62 -34 -75 -34 -23 0 -53 24
-53 43 0 24 31 56 65 67 19 6 35 15 35 19 0 13 -90 -5 -160 -32 -92 -34 -264
-132 -268 -152 -7 -34 41 -222 71 -280 28 -53 144 -191 153 -182 2 2 -12 33
-31 69 -62 117 -98 257 -63 246 12 -4 14 -7 47 -82 24 -54 40 -50 41 9 0 28 3
26 43 -35 l42 -65 3 38 c4 42 4 42 81 23 31 -8 98 -20 150 -26 108 -12 128
-21 137 -56 13 -51 -35 -205 -92 -292 -13 -19 -18 -21 -37 -11 -12 6 -32 21
-44 32 -21 19 -23 19 -29 2 -4 -10 -2 -36 4 -59 6 -22 8 -43 6 -45 -8 -8 -75
32 -94 56 -10 13 -22 23 -28 23 -14 0 -116 -118 -136 -158 -22 -42 -76 -209
-75 -230 0 -10 16 16 34 56 50 107 176 296 186 280 12 -19 11 -56 -2 -80 -18
-33 19 -58 83 -58 67 0 103 19 200 106 85 76 130 104 166 104 38 0 72 19 83
47 14 37 5 67 -26 83 -29 16 -32 25 -9 34 27 11 54 -4 60 -32 11 -43 14 -44
52 -16 100 77 133 94 181 94 61 0 93 -30 95 -88 1 -50 -29 -95 -133 -196 -43
-42 -77 -76 -75 -76 13 0 157 78 204 110 102 70 160 148 160 215 0 36 -27 95
-58 128 -34 36 -101 55 -254 71 -129 14 -132 17 -31 36 156 28 322 105 474
220 57 43 116 91 131 106 l27 29 -197 3 c-108 2 -200 6 -203 10 -4 4 2 44 13
90 11 46 17 86 15 89 -3 3 -20 -11 -38 -32 -31 -34 -130 -108 -164 -121 -13
-5 -15 5 -10 77 4 46 2 98 -3 114 -8 29 -10 27 -62 -74z m-266 -320 c18 -7 16
-11 -19 -34 -44 -30 -61 -32 -137 -15 l-53 11 50 23 c50 24 120 30 159 15z
m-654 -11 c0 -5 -4 -10 -10 -10 -5 0 -10 5 -10 10 0 6 5 10 10 10 6 0 10 -4
10 -10z"/>
<path d="M2565 4547 c-11 -6 -57 -40 -103 -74 -45 -34 -91 -64 -102 -68 -35
-11 -22 -22 63 -50 117 -39 235 -45 347 -16 105 27 229 77 295 119 l50 32 -76
0 c-44 0 -138 12 -220 29 -193 39 -230 43 -254 28z"/>
<path d="M2995 4396 c-38 -19 -91 -40 -117 -46 -27 -7 -48 -15 -48 -20 0 -7
41 -37 120 -86 25 -15 70 -36 100 -45 30 -10 45 -18 33 -18 -37 -1 -152 46
-217 90 l-61 41 -54 -19 c-90 -30 -91 -36 -22 -67 110 -49 240 -76 367 -76
116 0 159 16 62 23 -45 3 -41 4 21 5 41 1 140 9 220 18 170 19 191 16 296 -47
76 -45 198 -140 190 -147 -2 -3 -44 24 -92 60 -48 36 -110 77 -137 93 -48 27
-52 28 -160 22 -156 -7 -157 -8 -88 -72 31 -29 80 -74 107 -100 28 -26 62 -53
77 -61 42 -22 131 -42 257 -59 187 -26 210 -35 269 -107 28 -34 49 -64 47 -66
-2 -2 -31 20 -65 49 -93 83 -109 89 -227 89 -64 0 -103 -4 -103 -10 0 -6 7
-27 15 -47 24 -56 18 -61 -14 -12 -19 31 -41 51 -67 61 -49 19 -104 32 -104
23 0 -3 38 -51 85 -105 93 -107 151 -150 251 -187 70 -25 77 -15 13 17 -52 27
-50 34 4 10 23 -10 104 -35 181 -55 127 -33 204 -61 194 -70 -2 -3 -35 7 -74
20 -57 20 -164 34 -164 22 0 -11 50 -148 63 -174 22 -41 63 -75 189 -158 59
-38 106 -70 104 -72 -1 -2 -26 7 -55 19 -45 19 -53 20 -61 8 -17 -27 -11 -145
11 -215 22 -73 54 -110 217 -255 l72 -65 10 -75 c11 -79 2 -282 -11 -258 -4 7
-15 79 -24 158 -9 80 -22 159 -30 176 -14 32 -93 104 -113 104 -25 0 -45 -111
-39 -220 3 -58 1 -94 -3 -80 -12 38 -11 192 1 252 l12 52 -49 43 -49 42 -3
-53 c-2 -29 6 -100 18 -157 27 -132 82 -246 191 -393 l81 -109 -13 -66 c-20
-108 -25 -110 -32 -12 -7 96 -29 164 -62 191 -19 16 -13 21 -93 -75 l-33 -40
37 69 37 68 -21 44 c-37 75 -58 55 -87 -81 -18 -84 -19 -155 -4 -227 13 -62
29 -85 29 -42 0 16 25 -44 56 -138 l55 -167 -31 -73 c-16 -40 -51 -104 -76
-143 -51 -78 -51 -78 5 55 58 140 64 253 16 315 -14 19 -17 18 -73 -41 -32
-33 -73 -85 -91 -115 -18 -30 -29 -43 -26 -29 11 41 56 112 102 161 48 51 49
61 24 134 l-18 50 -21 -35 c-33 -53 -82 -186 -100 -270 -15 -75 -15 -75 20
-254 l35 -179 -57 -76 c-73 -96 -162 -194 -202 -223 -26 -18 -20 -7 32 63 160
216 184 268 174 375 -3 39 -10 77 -14 84 -6 10 -37 -15 -108 -86 -63 -62 -94
-88 -85 -69 9 16 45 59 81 95 36 35 69 78 73 95 12 40 11 105 0 105 -18 0 -92
-96 -130 -170 -47 -91 -107 -276 -71 -220 13 20 13 -20 0 -75 -5 -22 -14 -83
-20 -135 -16 -138 -23 -152 -93 -208 -56 -44 -158 -115 -197 -137 -15 -9 51
64 175 193 94 97 105 120 105 210 l0 73 -91 -47 c-101 -54 -154 -100 -176
-153 -8 -19 -29 -98 -47 -176 l-31 -140 -117 -59 c-65 -33 -120 -57 -123 -55
-3 3 32 31 78 62 45 30 95 69 110 85 29 30 77 145 77 184 0 21 -10 22 -110 2
-14 -3 -1 5 28 17 48 19 57 27 78 73 13 28 20 52 14 54 -24 8 -173 -92 -262
-176 -76 -72 -113 -133 -159 -256 -24 -64 -46 -107 -61 -119 -20 -14 -154 -49
-278 -71 -64 -12 -17 12 90 44 169 52 211 85 226 177 6 42 6 42 -30 49 -21 3
-70 3 -109 0 -129 -13 -234 -77 -354 -217 l-68 -79 -96 0 c-270 0 -334 32 -76
39 84 2 160 7 169 12 21 11 108 123 108 139 0 20 -83 50 -141 50 -87 0 -176
-32 -266 -97 -43 -31 -96 -69 -118 -85 l-40 -29 -75 16 c-88 18 -243 66 -236
72 2 3 72 -5 154 -17 133 -19 152 -20 183 -7 38 16 169 123 169 138 0 5 -32
25 -72 44 -57 27 -85 35 -130 35 -82 0 -202 -41 -292 -100 -100 -65 -121 -65
-253 -1 -89 44 -130 71 -106 71 4 0 55 -13 113 -30 146 -42 165 -40 290 23 57
28 106 57 108 64 2 6 -31 28 -73 49 -67 33 -84 37 -148 37 -61 -1 -95 -9 -215
-52 -79 -28 -154 -51 -165 -51 -12 1 -60 27 -106 59 -83 58 -229 180 -230 193
-1 8 26 2 108 -24 35 -11 99 -45 144 -75 44 -31 99 -64 123 -74 l42 -19 82 26
c44 14 83 31 86 39 7 16 -19 67 -60 120 -29 37 -29 39 -6 24 14 -9 38 -42 54
-72 l29 -57 41 7 c82 12 83 15 30 60 -78 64 -139 95 -203 102 -39 5 -61 3 -69
-5 -14 -16 -256 -29 -353 -19 -41 4 -86 14 -101 21 -26 14 -149 149 -169 187
-8 13 -6 17 8 17 36 -1 104 -40 165 -97 113 -105 118 -107 241 -112 67 -2 113
1 119 7 14 14 -48 125 -94 169 -61 59 -93 67 -301 71 l-188 4 -48 71 c-50 75
-121 203 -121 219 0 17 20 -3 116 -119 112 -134 142 -152 247 -153 l67 0 -51
103 c-28 56 -61 113 -73 125 -33 37 -105 69 -228 102 -62 17 -118 36 -124 43
-15 16 -127 318 -120 324 10 11 66 -92 92 -169 15 -45 39 -95 56 -113 29 -34
100 -67 172 -81 l38 -7 -7 59 c-11 93 -25 136 -60 184 -42 57 -69 77 -191 138
-54 27 -107 58 -116 68 -33 37 -60 161 -64 299 -4 120 -3 128 11 98 8 -17 22
-77 30 -133 30 -187 71 -270 158 -320 88 -50 87 -51 87 107 0 75 2 134 5 131
3 -3 8 -61 10 -128 3 -122 4 -123 34 -153 17 -17 33 -28 37 -24 12 12 -14 213
-36 274 -14 40 -33 70 -63 98 -24 22 -93 86 -153 142 l-111 102 -7 56 c-7 61
7 197 29 285 13 51 13 44 8 -107 -7 -203 1 -238 70 -305 26 -27 52 -48 57 -48
5 0 12 10 16 23 11 36 66 149 70 144 2 -2 -7 -37 -21 -78 -27 -79 -24 -108 15
-144 17 -16 19 -13 35 57 27 112 31 234 10 283 -9 22 -19 34 -22 27 -3 -7 -43
49 -90 124 -84 133 -85 136 -79 184 3 26 17 80 31 119 31 92 105 261 114 261
19 0 -12 -140 -65 -297 -48 -143 -44 -192 21 -253 l27 -25 24 30 c13 17 42 64
64 107 56 106 56 168 0 333 -22 65 -40 131 -40 145 0 31 103 210 121 210 8 0
-7 -92 -22 -138 -7 -20 -26 -59 -42 -85 l-30 -49 17 -52 c25 -78 30 -84 57
-61 12 11 48 53 81 93 78 98 74 76 -7 -37 -50 -69 -65 -98 -65 -124 0 -84 -32
-202 -76 -284 -49 -92 -53 -116 -24 -153 l19 -25 19 45 c36 84 61 175 72 258
9 71 20 100 77 209 l66 127 -6 71 c-3 38 -15 97 -27 130 -12 33 -32 88 -44
123 l-22 63 -22 -39 c-12 -21 -57 -86 -100 -144 -51 -68 -108 -162 -160 -267
-78 -152 -82 -165 -82 -226 0 -36 -2 -65 -5 -65 -3 0 -18 15 -34 32 l-29 32 1
-74 c0 -61 -6 -95 -36 -183 -41 -120 -47 -191 -22 -251 17 -41 15 -43 -22 -19
-25 17 -26 17 -18 -7 4 -14 14 -37 22 -53 10 -21 13 -63 11 -175 l-3 -147 37
-68 c38 -67 38 -67 13 -61 -26 6 -33 -4 -15 -22 5 -5 34 -63 63 -129 30 -66
73 -151 95 -190 23 -38 37 -72 31 -73 -5 -2 2 -17 16 -33 30 -37 52 -86 95
-213 34 -103 62 -141 153 -209 27 -20 51 -56 86 -125 27 -53 57 -105 68 -114
10 -9 48 -31 85 -48 54 -25 83 -49 152 -125 85 -92 86 -93 158 -110 61 -15 81
-25 123 -64 135 -126 114 -114 212 -116 88 -1 88 -1 188 -58 93 -53 105 -57
170 -59 38 -1 89 -1 112 0 28 2 70 -8 132 -33 105 -41 123 -42 211 -15 81 25
83 25 69 -2 -10 -19 -9 -20 7 -13 97 39 127 45 242 45 l119 0 91 45 c50 25 93
45 96 45 3 0 3 -7 0 -15 -8 -20 2 -19 34 4 33 23 78 37 162 51 108 18 131 30
210 105 71 68 80 73 160 94 109 30 128 41 176 109 68 97 103 129 182 170 42
22 89 53 104 69 14 15 47 76 73 135 46 106 78 148 150 204 50 38 72 79 95 180
11 49 23 100 26 114 5 24 6 24 19 6 13 -17 14 -16 19 15 19 138 26 160 76 248
50 87 52 94 47 147 -4 38 -2 52 5 48 8 -5 9 -1 4 11 -3 10 -9 43 -12 74 -5 48
-1 67 25 128 17 40 31 82 31 95 0 13 -11 65 -24 116 -23 89 -23 92 -4 86 21
-6 20 -4 -29 104 -13 27 -19 75 -23 172 -5 128 -7 137 -33 171 -34 45 -34 51
1 44 22 -5 24 -4 10 4 -31 20 -56 75 -77 172 l-22 95 -69 69 c-45 44 -65 72
-58 76 7 5 -5 26 -37 61 -31 34 -61 83 -84 138 -34 80 -40 87 -114 144 -78 59
-155 138 -240 246 -24 30 -54 60 -68 67 -13 7 -77 37 -143 68 -65 30 -173 86
-240 124 -125 72 -245 117 -339 126 -45 5 -61 2 -122 -29z m1538 -1345 c9 -16
17 -33 17 -38 -1 -9 -26 21 -41 50 -17 29 6 19 24 -12z"/>
<path d="M2250 4332 l-55 -36 60 -18 c86 -25 186 -32 293 -19 86 11 177 34
194 49 4 4 -55 7 -130 8 -122 1 -145 4 -211 27 -41 15 -79 27 -85 26 -6 0 -36
-17 -66 -37z"/>
<path d="M2105 4256 c-34 -15 -29 -19 48 -36 42 -9 171 1 185 15 8 8 -76 27
-138 31 -43 3 -75 0 -95 -10z"/>
<path d="M2545 4221 c-6 -10 62 -26 159 -37 70 -8 70 6 -1 30 -51 17 -148 22
-158 7z"/>
<path d="M2240 4174 c0 -3 16 -24 35 -47 54 -63 47 -135 -25 -246 -22 -33 -36
-61 -31 -61 4 0 41 18 81 40 79 44 188 129 244 191 l36 39 0 -42 c0 -70 -59
-134 -161 -171 -25 -10 -54 -23 -64 -31 -16 -11 -5 -11 66 -1 109 16 175 37
250 76 93 50 157 136 132 178 -5 9 -31 27 -58 40 -64 32 -201 42 -236 17 -31
-21 -63 -20 -132 4 -53 19 -137 27 -137 14z"/>
<path d="M1296 4163 c-11 -12 -6 -22 14 -28 29 -9 16 -27 -102 -152 -114 -120
-137 -162 -138 -247 l0 -59 99 104 c54 57 140 138 191 179 117 94 180 150 180
160 0 13 -59 29 -130 35 -36 3 -74 8 -86 10 -12 3 -24 2 -28 -2z"/>
<path d="M2835 4104 c29 -43 30 -53 11 -99 -19 -45 -55 -77 -141 -128 l-70
-42 45 -7 c125 -19 263 -3 316 37 45 34 77 90 70 120 -15 59 -90 114 -191 141
-68 19 -68 19 -40 -22z"/>
<path d="M3227 4131 c-37 -14 264 -198 361 -220 23 -5 42 -7 42 -5 0 2 -21 15
-47 30 -27 15 -81 59 -121 96 -40 38 -87 78 -105 88 -32 20 -95 25 -130 11z"/>
<path d="M3074 4101 c4 -6 24 -20 44 -30 43 -22 173 -63 179 -57 3 2 -24 23
-58 47 -50 34 -75 44 -118 47 -39 3 -52 2 -47 -7z"/>
<path d="M1421 3990 c-55 -45 -114 -97 -130 -117 -28 -34 -29 -38 -14 -55 15
-17 22 -12 127 89 101 97 135 135 136 156 1 18 -26 2 -119 -73z"/>
<path d="M3079 4041 c6 -11 16 -23 21 -26 6 -3 10 -26 10 -49 0 -60 -28 -92
-119 -134 l-76 -35 35 -10 c58 -15 240 -4 271 16 86 57 45 159 -93 228 -52 26
-58 27 -49 10z"/>
<path d="M1983 4020 c-35 -14 -28 -18 29 -16 48 1 53 -1 61 -25 21 -56 5 -78
-157 -223 -60 -54 -95 -94 -108 -123 -29 -65 -19 -88 14 -32 15 25 77 92 137
148 61 57 120 118 132 137 50 81 -22 169 -108 134z"/>
<path d="M1986 3977 c-14 -10 -17 -21 -11 -45 8 -40 21 -48 51 -32 32 18 40
47 18 71 -20 22 -34 24 -58 6z"/>
<path d="M1911 3922 c-27 -50 5 -94 55 -77 32 12 34 28 4 35 -12 3 -28 19 -34
35 l-13 30 -12 -23z"/>
<path d="M3324 3898 l26 -44 -31 -37 c-43 -52 -63 -61 -153 -67 -45 -3 -81
-10 -83 -16 -2 -6 36 -29 84 -50 78 -34 97 -39 170 -39 73 0 84 3 107 24 59
56 14 163 -103 243 l-43 31 26 -45z"/>
<path d="M2650 3888 c-25 -11 -85 -28 -133 -39 -103 -23 -157 -48 -180 -83
-24 -37 -21 -40 16 -19 17 11 79 36 137 57 114 42 195 80 205 96 8 12 9 13
-45 -12z"/>
<path d="M1780 3859 c-25 -34 -21 -46 9 -29 13 6 21 21 21 35 0 32 -4 31 -30
-6z"/>
<path d="M3520 3864 c0 -25 144 -164 157 -151 12 13 -61 108 -102 132 -43 25
-55 30 -55 19z"/>
<path d="M1015 3823 c-118 -85 -161 -142 -150 -201 7 -40 49 -127 65 -137 15
-9 47 21 77 73 20 33 27 63 33 140 4 57 14 112 24 130 21 41 13 40 -49 -5z"/>
<path d="M1654 3803 c-16 -8 -58 -43 -94 -77 -36 -35 -89 -75 -119 -90 -29
-15 -51 -29 -48 -32 15 -16 109 26 195 87 53 38 102 69 108 69 7 0 14 -10 18
-22 5 -19 8 -21 16 -8 5 8 10 27 10 42 0 36 -45 53 -86 31z"/>
<path d="M3520 3778 c21 -47 26 -109 10 -138 -15 -28 -74 -41 -155 -34 l-70 6
25 -21 c49 -41 147 -83 207 -88 57 -5 60 -4 86 27 33 39 35 87 7 144 -21 43
-106 146 -120 146 -5 0 0 -19 10 -42z"/>
<path d="M2716 3795 c-22 -7 -48 -22 -58 -32 -16 -17 -7 -16 93 9 61 15 114
29 117 32 11 12 -115 4 -152 -9z"/>
<path d="M2075 3749 c-113 -64 -150 -99 -171 -161 -19 -57 -13 -74 10 -30 9
17 68 74 131 127 103 86 133 115 123 115 -2 0 -44 -23 -93 -51z"/>
<path d="M2918 3730 c-30 -31 -33 -55 -3 -30 9 7 51 24 93 36 l77 23 -68 0
c-63 1 -71 -1 -99 -29z"/>
<path d="M3706 3577 c8 -57 -8 -99 -43 -118 -16 -9 -57 -14 -105 -14 -43 0
-78 -3 -78 -6 0 -12 79 -61 137 -85 115 -47 193 -21 193 64 0 45 -47 147 -85
182 l-25 24 6 -47z"/>
<path d="M1003 3528 c-49 -76 -72 -128 -73 -165 0 -41 17 -24 58 55 37 71 77
182 66 182 -2 0 -25 -33 -51 -72z"/>
<path d="M3824 3531 c24 -46 119 -131 132 -118 13 13 -61 115 -101 140 -23 15
-45 27 -49 27 -3 0 5 -22 18 -49z"/>
<path d="M3930 3538 c0 -40 194 -261 266 -303 64 -38 65 -31 4 33 -43 44 -63
76 -89 140 -20 50 -43 89 -57 98 -32 22 -124 45 -124 32z"/>
<path d="M3843 3400 c11 -69 1 -100 -40 -119 -35 -16 -72 -14 -139 8 -32 11
-60 18 -62 16 -8 -7 127 -110 173 -131 61 -29 125 -31 148 -6 34 37 14 142
-44 238 -18 30 -36 54 -39 54 -4 0 -2 -27 3 -60z"/>
<path d="M3977 3183 c4 -48 2 -62 -16 -84 -11 -15 -34 -29 -51 -32 -26 -6 -99
11 -164 38 -16 7 -17 5 -8 -11 18 -33 93 -105 140 -135 60 -38 113 -39 149 -3
23 23 25 31 21 92 -2 49 -11 83 -33 125 -16 32 -32 60 -36 63 -4 2 -5 -22 -2
-53z"/>
<path d="M1033 3153 c-95 -149 -133 -220 -163 -302 -17 -46 -29 -85 -27 -87 2
-3 26 28 53 68 l48 73 14 -77 c8 -43 17 -78 22 -78 4 0 10 32 14 71 7 75 54
283 80 358 9 24 14 46 12 48 -2 2 -26 -31 -53 -74z"/>
<path d="M4067 3178 c5 -45 16 -66 67 -135 33 -45 62 -80 64 -78 3 2 -6 46
-18 97 -20 79 -29 99 -60 131 -51 51 -60 48 -53 -15z"/>
<path d="M4180 3181 c0 -37 42 -134 102 -238 77 -132 96 -149 57 -51 -12 30
-23 86 -25 128 -9 148 -12 151 -107 175 -23 6 -27 4 -27 -14z"/>
<path d="M887 3022 c-82 -135 -177 -381 -177 -456 0 -37 18 -96 29 -96 14 0
41 71 41 108 0 109 43 264 117 421 24 51 42 95 40 97 -2 2 -24 -31 -50 -74z"/>
<path d="M4080 2999 c0 -65 -17 -107 -51 -124 -41 -22 -88 -18 -136 10 -24 13
-43 22 -43 19 0 -16 46 -91 77 -125 66 -73 133 -90 178 -44 22 21 25 33 25 92
0 66 -20 168 -40 202 -7 12 -9 4 -10 -30z"/>
<path d="M1032 2931 c-15 -63 -16 -211 -2 -211 14 0 54 67 78 133 30 78 28 80
-13 17 l-34 -55 -2 60 c0 33 -4 71 -8 84 -6 21 -8 17 -19 -28z"/>
<path d="M4236 2783 c5 -59 15 -95 40 -148 l34 -70 -5 93 c-4 72 -10 103 -30
141 -39 77 -47 74 -39 -16z"/>
<path d="M892 2778 c-39 -95 -59 -160 -71 -232 -13 -72 -14 -330 -1 -301 5 11
9 32 9 47 1 41 22 128 30 128 5 0 22 -26 39 -57 l31 -58 1 273 c0 149 -2 272
-4 272 -2 0 -18 -33 -34 -72z"/>
<path d="M4173 2747 c-9 -48 -19 -68 -43 -89 -42 -38 -75 -36 -148 12 -39 25
-62 35 -62 26 0 -30 73 -157 110 -190 48 -43 81 -46 116 -11 43 43 57 91 58
198 0 117 -15 143 -31 54z"/>
<path d="M990 2610 c0 -26 38 -181 46 -189 6 -6 -4 151 -12 181 -7 24 -34 31
-34 8z"/>
<path d="M961 2522 c-1 -58 34 -310 44 -321 3 -2 5 43 5 100 0 77 -7 127 -24
194 l-24 90 -1 -63z"/>
<path d="M4209 2481 c-29 -69 -51 -86 -107 -85 -43 1 -50 5 -100 60 l-54 59 7
-35 c27 -141 83 -230 143 -230 37 0 86 39 112 90 18 35 40 190 27 190 -4 0
-16 -22 -28 -49z"/>
<path d="M4300 2404 c-6 -16 -14 -41 -17 -56 -7 -34 6 -158 16 -158 4 0 16 27
26 60 27 91 4 232 -25 154z"/>
<path d="M861 2192 c-1 -98 4 -166 15 -215 16 -72 64 -189 80 -200 5 -3 8 33
6 79 -3 60 0 84 8 84 7 0 42 -30 77 -67 l65 -68 -25 55 c-26 59 -141 303 -194
410 l-32 65 0 -143z"/>
<path d="M3961 2220 c-2 -124 36 -190 108 -190 32 0 44 6 67 33 36 43 61 101
69 162 l7 50 -31 -52 c-34 -57 -55 -73 -98 -73 -42 0 -71 25 -98 84 l-23 51
-1 -65z"/>
<path d="M740 2235 c-15 -39 -8 -82 26 -153 25 -53 27 -55 34 -32 15 47 10
110 -10 148 -36 68 -38 69 -50 37z"/>
<path d="M3936 2051 c-5 -7 -10 -48 -13 -92 -7 -90 4 -122 49 -145 24 -13 32
-13 56 0 54 29 113 108 137 186 7 22 2 20 -38 -17 -72 -66 -123 -57 -161 30
-15 32 -25 46 -30 38z"/>
<path d="M4231 1999 c-27 -38 -71 -182 -59 -194 2 -3 28 29 56 70 41 59 52 83
52 114 0 22 -4 42 -9 45 -5 4 -23 -13 -40 -35z"/>
<path d="M3851 1786 c-25 -88 -26 -185 -3 -208 24 -24 129 58 183 141 37 58
37 69 -2 37 -60 -51 -127 -18 -136 67 -3 26 -9 47 -12 47 -4 0 -17 -38 -30
-84z"/>
<path d="M1010 1818 c1 -31 31 -140 54 -191 27 -62 124 -217 135 -217 4 0 3
25 -2 55 -6 30 -7 58 -4 61 4 4 30 -3 58 -15 29 -12 54 -19 57 -17 10 11 -109
167 -189 248 -84 85 -109 102 -109 76z"/>
<path d="M758 1748 c29 -42 62 -138 62 -179 0 -28 48 -77 81 -84 17 -4 33 -5
36 -2 3 3 -15 48 -39 99 -46 96 -87 152 -141 190 l-31 22 32 -46z"/>
<path d="M870 1758 c0 -54 21 -95 76 -148 l57 -55 -7 40 c-3 22 -6 49 -6 60 0
12 -26 42 -60 73 -54 48 -60 51 -60 30z"/>
<path d="M4068 1653 c-28 -29 -42 -56 -57 -112 -12 -41 -19 -76 -17 -78 2 -2
31 21 65 53 l61 56 0 59 c0 32 -4 59 -8 59 -4 0 -24 -17 -44 -37z"/>
<path d="M3735 1600 c-63 -118 -77 -169 -55 -211 25 -46 108 -8 210 95 30 31
52 56 48 56 -3 0 -22 -7 -41 -15 -82 -34 -119 -13 -127 72 l-5 58 -30 -55z"/>
<path d="M916 1427 c23 -21 57 -67 79 -109 67 -129 99 -158 144 -129 26 17
-156 219 -231 257 -32 16 -32 15 8 -19z"/>
<path d="M1248 1455 c-10 -10 17 -89 48 -142 47 -83 183 -227 144 -154 -5 11
-10 40 -10 66 l0 46 60 -7 c39 -4 60 -3 60 4 0 6 -28 36 -62 67 -79 71 -219
141 -240 120z"/>
<path d="M3577 1409 c-55 -62 -90 -131 -91 -178 l-1 -36 45 1 c54 0 135 36
210 92 73 56 81 75 20 44 -38 -18 -58 -23 -85 -18 -45 9 -59 35 -51 97 4 27 5
49 2 49 -2 0 -24 -23 -49 -51z"/>
<path d="M1085 1399 c16 -71 35 -94 128 -152 33 -21 34 -13 3 55 -25 56 -38
71 -100 108 l-38 23 7 -34z"/>
<path d="M3825 1297 c-39 -25 -54 -44 -74 -90 -13 -31 -22 -60 -19 -62 3 -3
30 9 61 27 52 31 57 37 72 91 9 33 15 61 13 63 -2 2 -26 -11 -53 -29z"/>
<path d="M3377 1239 c-64 -70 -88 -115 -95 -178 l-5 -44 58 6 c71 7 163 51
225 107 42 38 43 41 17 35 -74 -15 -117 -17 -132 -5 -17 14 -20 76 -5 114 15
41 -4 31 -63 -35z"/>
<path d="M3876 1188 c-52 -44 -190 -199 -208 -232 -8 -15 -2 -13 28 10 21 17
66 47 99 66 33 20 70 47 81 60 23 25 58 110 53 127 -2 6 -26 -8 -53 -31z"/>
<path d="M1487 1203 c-28 -27 28 -123 105 -181 66 -50 158 -106 163 -100 2 2
-11 26 -30 53 -40 56 -42 66 -15 90 15 14 32 17 81 13 60 -4 61 -4 37 14 -76
60 -217 118 -286 118 -27 0 -52 -3 -55 -7z"/>
<path d="M1250 1121 c19 -16 38 -30 41 -31 3 0 27 -32 53 -70 26 -39 53 -73
60 -76 8 -3 31 -4 52 -2 l39 3 -62 65 c-60 63 -142 121 -193 135 -23 6 -22 4
10 -24z"/>
<path d="M1370 1110 c17 -22 43 -48 58 -58 32 -23 92 -44 92 -33 0 19 -78 96
-114 112 -63 28 -71 23 -36 -21z"/>
<path d="M3150 1109 c-74 -46 -138 -104 -151 -137 -11 -29 6 -66 38 -81 56
-26 180 -6 272 45 84 45 85 54 3 54 -38 0 -84 3 -101 6 -29 6 -32 10 -26 33 3
14 16 47 29 74 13 26 18 47 12 46 -6 0 -40 -18 -76 -40z"/>
<path d="M3527 1035 c-32 -7 -60 -15 -61 -16 -16 -20 -86 -129 -86 -134 0 -4
8 -4 18 -2 9 3 39 10 65 17 42 11 54 21 93 75 24 34 44 65 44 69 0 7 3 7 -73
-9z"/>
<path d="M1767 1023 c-19 -18 -4 -54 36 -88 39 -35 264 -152 272 -143 3 2 -16
24 -40 48 -35 34 -45 51 -45 76 0 31 3 33 50 43 28 6 58 11 66 11 32 0 0 20
-62 40 -48 14 -94 20 -168 20 -57 0 -106 -3 -109 -7z"/>
<path d="M2893 1000 c-115 -41 -190 -120 -165 -174 14 -31 59 -41 156 -33 70
5 226 44 226 56 0 4 -36 12 -81 18 -56 7 -87 16 -100 30 -19 18 -19 19 11 66
16 26 30 50 30 52 0 9 -24 4 -77 -15z"/>
<path d="M2632 930 c-80 -21 -192 -72 -216 -99 -14 -15 -14 -19 0 -39 25 -37
102 -52 253 -51 188 1 208 9 101 37 -106 29 -140 42 -140 54 0 12 64 76 100
100 l25 17 -25 0 c-14 0 -58 -9 -98 -19z"/>
<path d="M2132 921 c-76 -26 -82 -35 -47 -71 49 -52 167 -97 295 -114 45 -6
45 -6 22 12 -13 9 -40 31 -60 49 -46 40 -39 57 36 93 28 14 51 28 52 31 1 25
-227 25 -298 0z"/>
<path d="M1670 895 c22 -27 101 -75 123 -75 17 0 17 2 -3 31 -23 31 -50 45
-105 56 -28 6 -29 5 -15 -12z"/>
<path d="M3234 850 c-41 -6 -65 -18 -119 -61 l-67 -54 74 -3 73 -3 53 56 c48
52 63 77 45 74 -5 -1 -31 -5 -59 -9z"/>
<path d="M1945 782 c24 -24 111 -62 143 -62 34 0 35 0 17 20 -19 21 -57 35
-125 45 -31 5 -42 4 -35 -3z"/>
<path d="M1790 731 c-21 -6 -18 -8 25 -14 28 -4 84 -23 124 -42 58 -28 85 -35
132 -35 93 0 74 20 -68 70 -60 21 -176 33 -213 21z"/>
<path d="M2750 689 l-65 -32 35 -14 c69 -30 90 -27 170 21 l75 46 -40 0 c-22
0 -56 3 -75 6 -26 4 -51 -3 -100 -27z"/>
<path d="M2373 699 c-18 -5 -33 -14 -33 -19 0 -5 20 -21 45 -36 41 -24 52 -26
110 -19 36 3 65 10 65 15 0 11 -119 70 -139 69 -9 0 -31 -5 -48 -10z"/>
<path d="M3160 689 c-168 -45 -268 -85 -317 -128 -35 -30 -28 -31 39 -4 47 19
87 27 167 30 58 3 113 9 121 13 8 5 30 29 48 54 l33 46 -28 -1 c-15 0 -44 -5
-63 -10z"/>
<path d="M2125 621 c-27 -6 -24 -8 25 -15 30 -4 89 -21 130 -37 73 -30 75 -30
117 -14 24 9 43 20 43 24 0 5 -33 18 -72 30 -73 21 -179 26 -243 12z"/>
<path d="M2547 574 c-31 -7 -74 -23 -95 -34 -27 -15 -30 -20 -12 -15 65 14
153 17 214 5 64 -12 66 -12 113 16 l48 28 -30 7 c-52 11 -178 8 -238 -7z"/>
</g>
</svg>
