<?xml version="1.0" standalone="no"?>
<!DOCTYPE svg PUBLIC "-//W3C//DTD SVG 20010904//EN"
 "http://www.w3.org/TR/2001/REC-SVG-20010904/DTD/svg10.dtd">
<svg version="1.0" xmlns="http://www.w3.org/2000/svg"
 width="1210.000000pt" height="1210.000000pt" viewBox="0 0 1210.000000 1210.000000"
 preserveAspectRatio="xMidYMid meet">
<metadata>
Created by potrace 1.14, written by Peter Selinger 2001-2017
</metadata>
<g transform="translate(0.000000,1210.000000) scale(0.100000,-0.100000)"
fill="#000000" stroke="none">
<path d="M4703 12079 c-6 -8 -54 -96 -107 -196 -52 -100 -114 -215 -138 -255
-51 -86 -148 -188 -236 -247 -109 -73 -133 -80 -314 -91 -248 -15 -357 -28
-549 -66 -96 -18 -181 -34 -187 -34 -8 0 -12 24 -12 75 0 42 -4 75 -10 75 -5
0 -47 -25 -94 -55 -115 -75 -161 -95 -224 -95 -66 0 -105 19 -126 64 -20 42
-20 76 -2 120 18 42 61 74 158 116 128 54 85 60 -102 15 -147 -36 -260 -81
-445 -175 -177 -90 -411 -219 -456 -251 l-27 -19 35 -162 c84 -403 111 -482
220 -656 81 -128 310 -391 319 -366 3 6 -26 68 -64 137 -117 214 -186 413
-199 569 -8 105 -4 114 45 89 50 -25 53 -31 87 -126 32 -92 77 -186 98 -203
12 -10 16 -7 21 19 3 17 6 51 6 75 0 47 14 94 29 94 5 0 50 -65 100 -145 51
-79 97 -147 103 -151 8 -5 9 19 4 83 l-7 90 30 6 c19 4 86 -6 178 -28 150 -35
250 -51 493 -80 171 -20 200 -28 232 -62 38 -40 48 -74 48 -164 0 -100 -22
-209 -65 -321 -42 -109 -154 -329 -195 -385 l-31 -43 -39 20 c-20 10 -71 44
-111 74 -52 39 -75 52 -81 43 -15 -24 -8 -115 17 -197 14 -46 25 -85 25 -87 0
-2 -15 -3 -33 -3 -53 0 -129 45 -222 133 l-88 82 -109 -114 c-59 -62 -129
-141 -155 -175 -84 -111 -164 -302 -244 -585 -16 -57 -27 -106 -25 -108 2 -2
41 70 85 160 45 91 124 233 176 316 134 214 274 421 284 421 13 0 44 -147 38
-179 -2 -14 -12 -47 -22 -72 -26 -65 -16 -90 47 -125 50 -27 60 -29 164 -29
110 0 111 0 195 42 91 46 163 101 353 271 218 193 237 205 416 244 126 27 147
39 176 101 45 98 26 163 -67 229 -33 22 -59 46 -59 53 0 17 47 36 107 42 45 5
54 3 77 -20 13 -14 32 -49 41 -78 8 -30 20 -61 25 -69 10 -16 4 -20 215 135
160 117 225 148 331 153 189 10 283 -81 272 -265 -7 -127 -59 -201 -353 -502
l-160 -164 120 63 c428 225 644 399 741 596 65 130 55 279 -27 409 -110 176
-262 229 -780 275 -127 11 -242 23 -255 26 -54 14 -21 31 109 58 374 79 552
138 817 272 228 115 435 250 670 439 120 96 263 225 257 231 -2 2 -39 -1 -83
-6 -109 -12 -954 17 -971 34 -3 3 18 107 46 232 28 125 49 229 46 232 -2 3
-59 -48 -126 -112 -119 -114 -261 -219 -381 -281 -31 -16 -60 -27 -63 -23 -3
3 -1 52 5 108 11 109 12 386 1 434 -5 24 -8 27 -18 15z m-872 -1055 c46 -8 88
-19 93 -24 9 -9 -108 -92 -184 -130 -25 -13 -58 -23 -75 -22 -55 1 -305 56
-302 66 4 12 141 81 212 107 62 23 148 24 256 3z m-1655 -38 c3 -8 4 -22 2
-31 -2 -13 -8 -12 -35 7 -18 13 -33 26 -33 31 0 14 61 7 66 -7z"/>
<path d="M6235 11296 c-16 -8 -88 -60 -160 -116 -110 -86 -371 -268 -409 -284
-24 -10 31 -37 168 -80 224 -72 291 -85 476 -92 171 -7 301 3 415 32 97 24
332 103 446 149 195 79 435 207 424 226 -4 5 -66 9 -138 9 -155 0 -230 11
-609 85 -445 87 -551 99 -613 71z"/>
<path d="M7435 10935 c-169 -79 -245 -110 -370 -154 -66 -23 -124 -46 -128
-51 -27 -26 404 -280 567 -334 118 -40 516 -46 761 -12 160 23 349 36 502 36
l133 0 134 -69 c230 -117 470 -285 595 -415 111 -116 65 -98 -147 57 -196 145
-326 230 -453 296 l-116 61 -105 0 c-165 0 -479 -37 -501 -59 -5 -5 54 -65
130 -135 76 -69 197 -181 268 -247 113 -105 143 -127 230 -170 146 -71 222
-88 730 -164 245 -37 389 -66 428 -87 69 -36 337 -339 337 -380 0 -23 -40 4
-175 118 -186 157 -272 218 -338 241 -44 15 -87 18 -294 18 -133 0 -244 -3
-248 -7 -4 -3 16 -73 43 -155 28 -81 53 -161 57 -177 11 -49 -16 -17 -71 85
-90 168 -169 231 -348 278 -87 23 -116 26 -116 12 0 -14 244 -295 355 -410
125 -128 230 -209 349 -265 93 -45 254 -102 262 -93 2 2 -44 32 -104 65 -102
57 -149 92 -124 92 6 0 64 -20 129 -44 168 -62 250 -87 550 -166 298 -79 397
-116 451 -168 53 -51 27 -52 -100 -3 -150 57 -257 82 -380 88 -93 5 -108 4
-108 -9 0 -20 70 -224 115 -336 80 -198 129 -242 571 -525 219 -139 296 -197
263 -197 -8 0 -85 28 -172 61 -86 34 -161 59 -165 55 -4 -4 -7 -103 -7 -219 1
-242 14 -313 85 -461 60 -126 126 -197 440 -475 141 -126 239 -220 252 -245
42 -79 63 -300 54 -586 -8 -258 -21 -368 -41 -348 -13 13 -38 168 -75 468 -51
420 -54 434 -96 492 -34 46 -153 157 -228 213 -36 27 -39 28 -51 12 -7 -10
-28 -61 -46 -115 l-34 -97 1 -210 c0 -216 23 -459 48 -520 19 -44 152 -237
285 -413 186 -246 182 -240 175 -292 -8 -61 -62 -327 -75 -370 -20 -67 -19
-66 -28 -51 -5 7 -12 66 -15 130 -17 302 -44 434 -106 529 -53 81 -83 107
-108 93 -19 -10 -100 -103 -217 -249 -105 -131 -82 -47 48 174 59 100 65 132
38 204 -33 89 -76 150 -105 150 -21 0 -28 -9 -46 -57 -31 -80 -76 -262 -90
-362 -24 -164 -1 -504 42 -609 l11 -27 7 25 c5 14 8 49 9 79 1 30 4 51 8 48 3
-4 37 -100 75 -214 144 -437 208 -647 208 -684 0 -82 -113 -333 -265 -587 -83
-140 -120 -191 -130 -180 -4 3 30 93 75 200 99 233 155 397 171 498 16 104 6
269 -20 345 -26 73 -66 135 -87 135 -35 0 -217 -200 -311 -340 -27 -41 -73
-117 -102 -167 -29 -51 -57 -96 -63 -99 -19 -12 0 71 37 163 57 142 130 248
288 421 37 39 67 80 67 90 0 33 -83 282 -95 282 -24 0 -154 -281 -230 -500
-113 -325 -113 -409 -1 -985 69 -358 72 -384 51 -425 -63 -124 -452 -576 -624
-727 -82 -72 -101 -84 -101 -62 0 14 101 159 239 343 198 266 309 452 347 582
14 49 16 83 11 199 -7 145 -22 264 -36 278 -14 14 -126 -86 -343 -305 -115
-115 -208 -204 -208 -197 0 22 61 122 115 189 29 36 111 126 182 201 72 74
135 144 141 155 11 21 36 303 27 312 -12 12 -168 -164 -237 -268 -121 -182
-186 -322 -267 -572 -50 -154 -52 -176 -11 -129 16 19 32 33 34 30 3 -3 -11
-92 -30 -199 -19 -107 -48 -294 -64 -415 -38 -274 -48 -331 -71 -376 -33 -66
-256 -250 -507 -417 -146 -97 -207 -130 -219 -119 -8 9 25 45 328 362 374 391
399 423 419 561 10 71 14 304 5 304 -11 0 -236 -116 -355 -183 -160 -90 -239
-167 -299 -288 -51 -104 -77 -195 -146 -513 -30 -138 -61 -273 -68 -301 l-12
-50 -205 -102 c-219 -111 -397 -189 -451 -200 -31 -6 -33 -5 -20 11 8 9 88 69
178 133 332 234 391 289 452 425 57 125 117 358 92 358 -5 0 -57 -9 -113 -20
-118 -23 -228 -36 -228 -27 0 11 73 43 173 77 l98 32 33 66 c52 107 90 202 82
209 -18 18 -291 -149 -484 -296 -122 -92 -266 -220 -259 -228 3 -2 35 12 72
32 64 34 85 39 71 17 -3 -6 -53 -38 -110 -71 -68 -40 -119 -78 -145 -108 -75
-88 -173 -297 -270 -578 -59 -168 -75 -194 -142 -227 -119 -59 -551 -162 -734
-174 -81 -6 -88 -5 -75 9 18 18 183 79 387 141 327 101 403 150 479 310 37 77
54 187 35 216 -9 13 -45 15 -228 14 -257 -1 -307 -10 -462 -85 -212 -101 -310
-184 -604 -512 l-150 -167 -91 0 c-288 1 -801 31 -834 49 -15 8 -12 12 18 25
59 24 182 36 485 46 423 14 391 8 472 94 116 121 220 272 209 301 -8 21 -137
83 -208 100 -123 29 -313 13 -463 -38 -146 -50 -260 -119 -554 -336 -223 -165
-204 -157 -319 -142 -242 32 -794 193 -764 223 11 11 154 -2 402 -37 363 -52
462 -55 538 -16 64 33 189 132 302 238 91 87 103 102 92 116 -18 22 -122 78
-254 138 -110 49 -110 49 -216 49 -143 0 -225 -13 -351 -56 -145 -48 -278
-113 -461 -226 -85 -52 -169 -103 -187 -112 -82 -41 -201 -7 -519 150 -99 49
-190 101 -215 123 -44 39 -44 39 -19 46 24 6 90 -10 460 -107 158 -41 274 -47
360 -19 75 25 473 220 510 250 l25 20 -24 25 c-28 29 -236 134 -331 167 -80
27 -234 36 -340 20 -43 -7 -234 -65 -445 -136 -230 -78 -385 -125 -410 -125
-55 0 -117 31 -275 138 -234 157 -637 496 -627 526 11 32 307 -49 462 -126 33
-17 148 -88 256 -159 255 -168 290 -184 394 -184 66 0 99 7 190 39 160 55 219
86 223 115 6 37 -59 156 -152 279 -48 62 -86 117 -86 122 0 16 15 11 56 -18
64 -47 108 -103 174 -221 l62 -111 61 0 c65 1 214 24 226 35 7 8 -14 26 -179
151 -198 150 -366 223 -517 224 -41 0 -54 -4 -62 -18 -8 -14 -30 -22 -93 -30
-234 -33 -826 -40 -1008 -11 -41 6 -95 21 -120 32 -81 38 -249 213 -409 427
-71 95 -86 130 -54 130 39 0 153 -34 218 -66 68 -33 94 -53 316 -253 231 -208
276 -224 626 -219 127 2 235 6 239 11 12 11 -120 264 -178 342 -92 122 -219
207 -359 240 -43 10 -166 18 -379 26 -173 5 -382 13 -464 17 l-150 7 -99 145
c-174 256 -347 563 -347 617 l0 24 31 -18 c36 -21 133 -127 274 -298 54 -66
153 -175 219 -241 160 -160 174 -166 414 -172 128 -3 172 -1 172 8 0 21 -203
413 -253 488 -53 79 -140 158 -215 196 -68 34 -199 77 -430 140 -240 66 -308
92 -334 127 -18 23 -193 462 -288 719 -54 148 -50 162 28 83 73 -76 128 -184
228 -448 64 -169 71 -184 125 -240 32 -33 81 -74 111 -92 55 -33 295 -117 367
-129 l41 -7 0 62 c0 97 -29 278 -59 366 -35 104 -86 181 -186 280 -91 90 -167
137 -489 306 -219 115 -250 140 -286 235 -37 100 -87 313 -105 444 -21 159
-33 590 -17 590 16 0 56 -82 81 -165 11 -39 34 -155 51 -260 50 -309 104 -484
199 -645 55 -92 111 -138 254 -210 127 -63 151 -70 161 -44 3 9 6 183 6 387 1
331 2 369 15 345 22 -40 34 -140 45 -388 11 -246 16 -292 35 -330 13 -26 118
-130 131 -130 10 0 -3 257 -21 390 -27 206 -84 383 -155 483 -24 33 -135 139
-277 263 -298 262 -466 424 -489 472 -16 33 -18 65 -18 277 0 202 4 260 22
370 23 130 65 316 84 364 9 24 10 25 20 8 7 -13 5 -94 -7 -268 -23 -322 -17
-624 12 -715 11 -34 35 -82 53 -109 60 -87 223 -232 251 -223 6 2 32 53 58
113 65 149 146 308 165 324 27 22 20 -12 -35 -184 -29 -92 -53 -188 -56 -225
-5 -65 -5 -65 47 -142 28 -43 55 -78 59 -78 9 0 21 49 72 295 35 168 39 206
39 331 0 162 -11 234 -48 313 l-26 56 -5 -39 c-6 -36 -7 -37 -22 -20 -9 11
-26 37 -39 59 -13 22 -97 155 -186 295 -202 319 -214 343 -214 417 0 67 28
204 66 331 67 222 304 763 329 752 14 -7 8 -134 -10 -240 -22 -127 -46 -217
-130 -480 -154 -485 -153 -536 13 -712 36 -37 70 -68 76 -68 17 0 162 223 229
351 86 164 102 222 101 364 0 139 -3 151 -114 490 -119 363 -122 399 -51 539
56 110 252 401 271 401 19 0 16 -58 -10 -212 -26 -146 -58 -232 -141 -379 -76
-132 -80 -150 -50 -235 25 -73 92 -219 101 -219 23 0 194 201 348 408 73 97
92 130 92 156 0 57 -45 213 -118 411 -38 105 -78 216 -88 248 -10 31 -21 57
-25 57 -4 0 -37 -49 -74 -108 -37 -60 -138 -204 -225 -321 -194 -262 -215
-298 -415 -696 -198 -393 -215 -441 -224 -632 -4 -78 -10 -145 -15 -150 -8 -8
-34 18 -113 112 l-41 50 1 -170 c1 -206 -8 -245 -117 -555 l-76 -213 0 -128
c0 -128 0 -129 41 -229 23 -55 39 -103 35 -107 -4 -4 -36 8 -73 26 -36 17 -68
30 -70 27 -3 -3 13 -44 35 -93 22 -48 46 -108 52 -133 8 -29 13 -168 14 -410
1 -281 5 -373 15 -400 8 -19 47 -94 87 -165 41 -72 74 -136 74 -143 0 -16 -19
-15 -70 3 -24 8 -45 13 -48 11 -2 -3 19 -45 47 -94 29 -49 85 -165 125 -258
86 -198 84 -194 238 -482 96 -178 119 -229 115 -251 -5 -22 3 -38 39 -82 60
-72 117 -194 199 -424 87 -244 121 -330 151 -382 40 -68 122 -151 223 -223
153 -109 165 -125 323 -434 123 -241 134 -252 383 -376 l190 -95 98 -115 c136
-158 287 -315 323 -333 16 -8 106 -36 199 -62 112 -30 181 -55 203 -71 18 -14
103 -91 190 -171 86 -81 179 -164 206 -185 l48 -38 204 6 203 7 208 -115 c114
-64 242 -134 284 -157 l76 -41 164 0 c98 0 169 -4 175 -10 7 -7 28 -7 63 0
128 24 190 12 439 -84 243 -94 266 -95 546 -16 99 27 184 50 188 50 5 0 -3
-22 -17 -50 -14 -27 -21 -50 -16 -50 5 0 60 20 123 44 62 24 145 49 183 55 39
6 201 15 360 20 l290 10 236 120 c130 67 240 121 243 121 3 0 6 -18 6 -40 0
-22 2 -40 5 -40 3 0 44 22 91 50 113 65 137 72 409 125 170 33 246 53 290 75
42 21 111 77 235 191 96 88 190 169 210 179 43 21 153 57 325 105 71 20 149
47 172 60 48 29 102 90 198 225 168 235 220 282 458 413 167 93 248 148 281
191 29 39 99 177 161 321 26 61 70 155 99 210 54 106 104 162 337 380 135 126
152 163 224 499 56 255 63 286 74 286 5 0 21 -18 35 -41 15 -22 29 -39 32 -37
2 2 11 71 19 154 27 253 53 336 175 549 138 241 153 293 126 438 -9 48 -14 92
-11 96 3 5 14 7 24 4 19 -5 19 -3 -1 69 -15 53 -21 106 -22 193 l-1 120 68
149 67 148 0 107 c0 93 -6 132 -50 315 -62 260 -62 266 -12 230 13 -9 26 -14
29 -11 3 3 -30 88 -73 189 -77 178 -79 186 -82 273 -11 343 -22 545 -33 575
-7 19 -41 78 -76 130 -35 52 -63 101 -63 108 0 10 13 11 53 6 l52 -7 -53 57
c-71 75 -94 130 -137 326 -42 190 -56 244 -80 291 -10 19 -94 112 -187 207
-93 94 -168 178 -166 185 3 6 17 13 32 15 26 3 23 8 -67 101 -116 122 -170
207 -242 385 -30 76 -62 151 -71 168 -27 52 -86 109 -209 201 -260 196 -386
319 -561 549 -131 173 -209 252 -289 295 -33 17 -134 63 -225 103 -198 85
-464 222 -731 376 -108 61 -222 125 -255 142 -166 83 -512 180 -674 188 l-95
5 -100 -46z m2095 -1870 c0 -8 -6 -15 -14 -15 -17 0 -28 14 -19 24 12 12 33 6
33 -9z m1808 -1612 c27 -38 48 -82 56 -117 6 -25 5 -28 -7 -17 -18 14 -114
152 -123 176 -6 16 -5 16 24 1 17 -9 39 -28 50 -43z m-10088 -1408 c0 -8 -9
-15 -20 -15 -20 0 -26 11 -13 23 12 13 33 7 33 -8z m2280 -4265 c0 -15 -7 -20
-24 -20 -14 0 -28 5 -31 10 -10 16 4 30 31 30 17 0 24 -5 24 -20z"/>
<path d="M5442 10743 c-78 -48 -142 -91 -142 -95 0 -10 104 -41 245 -74 274
-63 756 -32 1029 67 83 30 129 58 69 42 -15 -4 -134 -7 -263 -7 -188 -1 -253
3 -325 17 -133 26 -262 63 -364 102 -50 19 -94 35 -99 35 -4 0 -72 -39 -150
-87z"/>
<path d="M6682 10615 c-79 -35 -147 -66 -150 -69 -11 -11 14 -27 104 -65 181
-78 430 -153 618 -186 104 -18 580 -22 591 -5 3 6 -1 10 -9 10 -47 0 -266 34
-354 55 -178 43 -322 111 -539 257 -56 37 -106 68 -110 67 -4 0 -73 -29 -151
-64z"/>
<path d="M5093 10551 c-83 -23 -119 -40 -107 -51 18 -15 191 -52 269 -57 80
-5 313 19 343 36 19 11 -14 22 -163 56 -157 36 -252 40 -342 16z"/>
<path d="M6198 10453 c-16 -2 -28 -8 -28 -13 0 -23 318 -72 441 -68 95 3 94 5
-46 56 -60 22 -89 26 -205 28 -74 1 -147 0 -162 -3z"/>
<path d="M5423 10324 c-22 -10 -14 -27 47 -104 93 -116 104 -144 96 -250 -4
-48 -13 -114 -22 -146 -19 -76 -88 -213 -160 -320 -31 -46 -55 -87 -52 -89 2
-3 45 16 94 41 277 142 465 285 732 553 78 78 117 110 124 103 18 -18 -6 -211
-33 -263 -31 -61 -152 -184 -223 -225 -32 -20 -113 -58 -180 -86 -139 -58
-198 -87 -176 -88 8 0 85 11 171 25 434 67 699 182 892 384 80 83 127 165 127
220 0 46 -55 98 -153 145 -101 49 -217 74 -387 84 l-145 8 -108 -53 -108 -54
-137 45 c-75 24 -162 48 -192 54 -70 13 -191 22 -207 16z m737 -160 l35 -14
-35 6 c-19 4 -50 13 -70 20 l-35 14 35 -6 c19 -4 50 -13 70 -20z"/>
<path d="M2917 10273 c-14 -13 -6 -23 31 -42 55 -28 66 -44 51 -73 -22 -42
-116 -151 -304 -353 -318 -341 -343 -386 -353 -617 -4 -109 -3 -128 10 -128 8
0 70 61 137 135 215 236 428 435 736 685 104 85 221 185 260 223 l70 67 -23
19 c-25 21 -78 35 -222 56 -198 29 -379 42 -393 28z"/>
<path d="M7983 10219 c-24 -6 -43 -14 -43 -20 0 -14 462 -317 590 -386 63 -34
151 -76 195 -94 91 -36 245 -82 252 -76 2 3 -31 24 -74 48 -135 74 -214 133
-353 265 -264 249 -288 264 -429 270 -53 2 -115 -1 -138 -7z"/>
<path d="M6900 10213 c0 -4 19 -34 43 -68 42 -60 42 -60 42 -150 0 -73 -4 -98
-22 -131 -62 -116 -167 -207 -377 -326 -71 -40 -130 -77 -130 -83 -2 -18 83
-24 354 -24 303 -1 361 7 470 65 131 68 262 244 246 329 -16 85 -130 207 -260
279 -84 47 -366 131 -366 109z"/>
<path d="M7585 10125 c47 -41 161 -92 322 -144 81 -27 161 -52 178 -55 29 -7
29 -7 12 12 -25 28 -237 169 -283 188 -26 11 -76 18 -149 21 l-110 4 30 -26z"/>
<path d="M3445 9974 c-244 -174 -585 -487 -585 -535 0 -30 50 -82 71 -74 8 3
53 48 99 101 47 52 143 148 215 212 218 197 236 215 266 267 29 50 37 85 20
85 -5 0 -44 -25 -86 -56z"/>
<path d="M7610 9942 c48 -68 60 -133 40 -225 -25 -120 -115 -202 -338 -302
-64 -29 -118 -57 -120 -63 -6 -19 169 -42 318 -42 264 1 371 25 455 102 62 56
91 118 82 174 -13 78 -91 186 -189 261 -54 42 -255 153 -277 153 -6 0 7 -26
29 -58z"/>
<path d="M4731 9910 c-24 -11 -42 -22 -40 -24 2 -3 29 2 59 10 119 31 174 12
206 -71 13 -34 15 -61 11 -110 -7 -71 -15 -91 -61 -149 -27 -33 -348 -330
-428 -395 -16 -13 -63 -62 -104 -109 -86 -98 -141 -201 -150 -282 l-6 -55 43
70 c70 116 91 139 399 445 309 306 353 359 366 446 12 83 -41 186 -115 224
-51 26 -123 26 -180 0z"/>
<path d="M4755 9818 c-41 -22 -65 -52 -65 -79 0 -40 39 -139 57 -146 20 -8 77
23 120 63 37 35 42 70 17 114 -30 50 -87 72 -129 48z"/>
<path d="M4525 9640 c-29 -57 -32 -96 -9 -128 19 -28 65 -52 100 -52 31 0 126
49 121 63 -2 6 -25 16 -52 23 -57 14 -89 46 -105 104 -6 22 -15 40 -20 40 -5
0 -21 -22 -35 -50z"/>
<path d="M8170 9685 c0 -3 23 -42 50 -86 28 -44 50 -86 50 -92 0 -23 -104
-150 -164 -199 -101 -84 -124 -91 -323 -96 -153 -4 -174 -6 -189 -23 -9 -11
-15 -22 -12 -24 10 -10 262 -117 373 -159 l110 -41 165 0 c152 0 169 2 217 24
64 29 120 87 129 136 16 89 -48 251 -140 352 -82 89 -266 234 -266 208z"/>
<path d="M6420 9562 c-47 -19 -189 -61 -317 -93 -252 -63 -338 -96 -402 -155
-37 -33 -101 -114 -101 -127 0 -3 46 19 103 48 56 29 165 76 242 104 77 29
192 72 255 98 116 46 330 149 330 158 0 10 -26 2 -110 -33z"/>
<path d="M4218 9538 c-42 -55 -80 -120 -74 -125 3 -3 29 3 58 14 l53 20 3 53
c4 68 -8 80 -40 38z"/>
<path d="M8720 9523 c0 -39 353 -383 393 -383 27 0 -64 148 -141 231 -67 73
-252 185 -252 152z"/>
<path d="M2236 9420 c-192 -131 -358 -289 -402 -383 -42 -92 -27 -193 56 -362
52 -106 92 -158 118 -153 22 4 146 170 182 243 37 74 46 123 64 350 14 177 32
259 72 337 8 15 11 28 6 28 -4 0 -48 -27 -96 -60z"/>
<path d="M8682 9390 c4 -8 23 -54 42 -102 82 -196 68 -325 -42 -403 l-44 -30
-221 -5 -222 -5 85 -56 c175 -116 356 -188 496 -197 105 -6 125 0 180 50 68
63 88 108 88 198 -1 124 -67 252 -223 427 -76 86 -151 152 -139 123z"/>
<path d="M3881 9354 c-43 -18 -136 -94 -271 -219 -144 -134 -185 -166 -303
-232 -56 -31 -96 -58 -88 -61 19 -6 128 26 206 63 39 18 120 67 180 110 195
139 355 245 368 245 8 0 26 -28 42 -62 l28 -63 20 82 c24 97 22 102 -59 133
-64 24 -78 24 -123 4z"/>
<path d="M6688 9349 c-32 -4 -72 -16 -90 -25 -70 -35 -151 -88 -141 -91 13 -5
471 105 493 118 19 11 -185 9 -262 -2z"/>
<path d="M4990 9227 c-292 -172 -362 -224 -417 -310 -25 -40 -88 -216 -80
-224 3 -2 23 22 45 54 47 69 91 110 327 309 175 148 315 273 305 273 -3 1 -84
-46 -180 -102z"/>
<path d="M7261 9230 c-45 -11 -110 -58 -138 -99 -13 -19 -22 -36 -20 -37 2 -2
48 17 104 41 55 25 144 57 199 70 54 14 104 27 109 29 19 8 -220 4 -254 -4z"/>
<path d="M9193 8865 c41 -209 32 -273 -47 -351 -77 -75 -114 -85 -333 -91
-101 -3 -183 -9 -183 -13 0 -11 171 -120 248 -159 180 -91 392 -127 480 -82
27 14 50 37 68 66 25 43 26 51 22 163 l-3 117 -48 90 c-52 96 -144 229 -184
267 l-26 23 6 -30z"/>
<path d="M2233 8723 c-55 -81 -155 -248 -187 -310 -44 -89 -74 -243 -47 -243
26 0 143 206 201 354 35 89 82 247 76 253 -2 3 -22 -22 -43 -54z"/>
<path d="M9475 8748 c13 -41 75 -153 106 -191 34 -41 237 -197 256 -197 9 0 3
21 -18 63 -75 148 -166 252 -273 312 -74 41 -80 42 -71 13z"/>
<path d="M9780 8685 c0 -12 127 -192 211 -300 116 -149 216 -259 310 -342 89
-79 253 -193 277 -193 8 0 -37 53 -100 119 -126 130 -158 182 -243 391 -90
220 -102 233 -267 285 -120 38 -188 52 -188 40z"/>
<path d="M9550 8441 c0 -6 7 -53 16 -103 22 -128 15 -216 -20 -263 -85 -112
-213 -125 -464 -49 -63 19 -119 33 -124 32 -6 -2 18 -29 53 -59 354 -308 661
-412 768 -258 22 32 23 40 17 134 -9 164 -59 307 -165 472 -53 83 -81 115 -81
94z"/>
<path d="M1872 8134 c-33 -68 -72 -129 -176 -274 -153 -214 -146 -198 -146
-317 0 -73 -4 -110 -14 -126 -8 -12 -22 -80 -31 -152 -22 -173 -58 -277 -160
-462 -124 -224 -130 -244 -99 -306 23 -45 63 -97 75 -97 12 0 35 51 111 254
71 188 100 311 129 541 l21 170 160 312 159 311 -3 97 -3 97 -23 -48z"/>
<path d="M10149 7873 c-5 -40 6 -177 17 -220 16 -61 31 -85 187 -292 124 -166
125 -166 131 -160 6 6 -60 267 -99 395 -22 71 -34 92 -81 144 -64 69 -154 146
-155 133z"/>
<path d="M9915 7749 c9 -140 -2 -188 -54 -240 -44 -44 -91 -59 -192 -59 -85 0
-187 23 -299 68 -41 16 -77 28 -79 26 -6 -6 79 -108 164 -195 139 -142 288
-230 403 -237 263 -18 317 271 123 650 -66 128 -74 127 -66 -13z"/>
<path d="M2279 7693 c-138 -212 -277 -450 -344 -588 -84 -174 -177 -421 -155
-413 5 2 58 73 118 158 60 85 113 154 118 153 9 -2 17 -34 58 -246 23 -121 30
-146 40 -136 2 2 12 69 21 149 29 254 123 690 202 933 19 60 33 111 30 113 -2
3 -42 -53 -88 -123z"/>
<path d="M10440 7776 c0 -82 113 -362 226 -560 67 -117 205 -336 217 -343 12
-7 9 3 -36 128 -48 131 -63 212 -81 435 -21 260 -18 249 -80 278 -54 25 -221
86 -237 86 -5 0 -9 -11 -9 -24z"/>
<path d="M1901 7353 c-81 -129 -224 -415 -289 -580 -108 -270 -202 -573 -202
-648 0 -44 31 -158 57 -208 19 -37 31 -27 73 64 28 62 34 88 46 222 35 393
110 652 314 1085 39 85 69 156 67 159 -3 2 -33 -40 -66 -94z"/>
<path d="M10186 7309 c-3 -19 -7 -70 -10 -114 -8 -110 -21 -150 -67 -200 -59
-64 -123 -88 -225 -83 -75 3 -90 7 -178 52 -53 27 -99 46 -102 43 -7 -6 37
-93 88 -174 21 -34 80 -101 131 -150 107 -102 183 -145 267 -151 48 -3 61 0
102 27 26 16 61 49 79 73 l31 43 -5 185 c-5 192 -19 273 -68 405 -28 77 -36
86 -43 44z"/>
<path d="M2266 7123 c-8 -26 -20 -77 -26 -113 -13 -84 -13 -480 0 -480 14 0
82 104 127 195 50 100 107 244 100 251 -3 3 -26 -28 -51 -69 -46 -74 -91 -125
-101 -115 -3 3 -10 87 -15 188 -5 100 -11 184 -13 187 -3 2 -12 -17 -21 -44z"/>
<path d="M10596 6834 c-11 -80 -7 -239 7 -285 18 -58 147 -338 160 -346 13 -8
0 255 -18 359 -9 55 -30 113 -71 198 -31 66 -60 120 -64 120 -4 0 -10 -21 -14
-46z"/>
<path d="M1917 6733 c-114 -244 -182 -466 -222 -723 -20 -126 -33 -651 -17
-690 13 -34 14 -30 50 195 31 194 45 245 69 245 14 0 55 -61 124 -182 23 -43
45 -78 48 -78 8 0 8 1317 0 1324 -3 4 -26 -38 -52 -91z"/>
<path d="M10456 6750 c-3 -14 -14 -68 -25 -122 -24 -122 -63 -208 -113 -254
-50 -45 -75 -54 -154 -54 -83 0 -138 22 -264 104 -55 36 -106 66 -111 66 -16
0 -4 -40 43 -147 101 -233 225 -384 340 -414 89 -24 158 10 225 109 64 95 93
200 100 357 5 127 -8 309 -26 356 l-9 24 -6 -25z"/>
<path d="M10830 6716 c0 -165 59 -535 114 -717 35 -115 92 -256 101 -247 3 2
0 45 -6 94 -17 137 -6 414 22 563 l23 124 -69 64 c-39 35 -96 86 -127 114
l-58 51 0 -46z"/>
<path d="M2140 6262 c0 -41 89 -423 101 -436 21 -23 -2 348 -25 392 -13 25
-55 62 -71 62 -3 0 -5 -8 -5 -18z"/>
<path d="M2061 6085 c-1 -79 16 -258 40 -425 23 -163 69 -410 79 -429 11 -20
24 287 16 365 -6 61 -104 473 -125 524 -8 21 -10 15 -10 -35z"/>
<path d="M10562 6006 c-7 -15 -26 -60 -42 -100 -42 -99 -89 -159 -145 -186
-41 -20 -58 -22 -138 -18 -135 7 -177 34 -310 201 -42 54 -73 85 -75 76 -4
-22 82 -316 118 -401 36 -88 90 -162 147 -202 54 -37 133 -47 186 -21 85 40
199 170 236 270 24 63 44 239 39 340 -3 66 -4 68 -16 41z"/>
<path d="M10765 5748 c-26 -67 -55 -207 -55 -274 0 -54 20 -193 36 -246 11
-37 24 -15 59 94 52 165 61 226 46 300 -15 73 -49 168 -61 168 -4 0 -15 -19
-25 -42z"/>
<path d="M1805 5210 c2 -162 9 -342 15 -400 22 -219 89 -442 194 -645 l41 -80
5 215 c4 184 7 215 20 212 37 -7 130 -85 227 -189 59 -62 108 -111 110 -109 7
7 -337 733 -535 1126 l-82 165 5 -295z"/>
<path d="M9891 5235 c-1 -221 19 -300 102 -400 58 -71 160 -94 242 -56 113 52
215 238 264 478 11 53 19 99 16 101 -4 4 -6 0 -81 -127 -27 -46 -68 -100 -91
-121 -99 -87 -232 -75 -328 31 -33 36 -52 73 -113 209 -8 20 -11 -4 -11 -115z"/>
<path d="M1512 5298 c-16 -21 -32 -89 -32 -144 0 -63 19 -129 77 -266 42 -100
66 -138 79 -125 3 3 10 73 16 156 l9 151 -47 88 c-70 128 -89 155 -102 140z"/>
<path d="M9811 4789 c-19 -56 -33 -210 -29 -335 l3 -120 38 -51 c69 -95 148
-118 241 -73 53 25 168 145 214 222 38 64 123 250 117 256 -2 2 -41 -28 -86
-68 -91 -80 -129 -100 -191 -100 -65 0 -116 18 -157 55 -40 36 -90 122 -111
190 -17 56 -26 61 -39 24z"/>
<path d="M10605 4693 c-32 -37 -68 -90 -81 -118 -22 -49 -100 -382 -91 -391 4
-4 234 321 256 363 19 37 8 202 -15 210 -6 2 -37 -27 -69 -64z"/>
<path d="M9657 4303 c-3 -4 -27 -80 -53 -168 l-49 -160 0 -150 c0 -120 4 -161
19 -204 18 -53 18 -53 54 -47 114 18 383 280 474 461 l31 60 -34 -28 c-87 -70
-123 -90 -169 -95 -56 -5 -118 19 -172 67 -42 36 -52 62 -73 180 -15 86 -19
99 -28 84z"/>
<path d="M2206 4202 c-7 -11 27 -176 59 -286 40 -139 106 -282 221 -482 62
-108 190 -294 203 -294 4 0 2 37 -4 83 -7 45 -16 115 -20 155 -6 63 -5 72 10
72 9 0 77 -25 152 -56 74 -30 138 -53 141 -50 7 7 -88 150 -193 291 -169 226
-547 603 -569 567z"/>
<path d="M1500 4074 c0 -4 19 -32 42 -62 74 -99 103 -168 147 -351 46 -192 64
-236 114 -274 71 -54 163 -92 188 -77 16 11 -16 97 -107 285 -79 164 -124 234
-215 330 -76 80 -169 162 -169 149z"/>
<path d="M1840 4036 c0 -49 37 -194 57 -226 48 -74 246 -270 260 -256 11 10
-28 233 -46 259 -9 14 -57 63 -106 108 -50 46 -107 99 -127 118 l-38 35 0 -38z"/>
<path d="M10158 3763 l-89 -88 -49 -185 c-27 -102 -49 -189 -47 -193 3 -10
149 114 245 207 l62 60 0 127 c0 130 -4 159 -23 159 -5 0 -50 -39 -99 -87z"/>
<path d="M9352 3730 c-35 -53 -169 -333 -192 -400 -24 -72 -26 -178 -5 -225
46 -95 192 -63 356 79 94 81 265 254 258 261 -3 3 -38 -6 -77 -20 -95 -33
-186 -34 -232 -2 -67 45 -74 65 -80 210 l-5 132 -23 -35z"/>
<path d="M8930 3187 c-186 -221 -290 -418 -290 -549 l0 -48 93 0 c55 0 116 6
148 16 84 24 265 118 361 187 108 78 204 160 191 164 -5 2 -45 -13 -89 -33
-144 -67 -265 -56 -326 28 -19 28 -23 45 -23 113 0 44 3 106 8 138 4 33 3 57
-2 57 -5 0 -37 -33 -71 -73z"/>
<path d="M2820 3214 c0 -74 128 -353 215 -469 53 -71 277 -317 282 -311 3 2
-3 28 -11 57 -18 58 -22 234 -7 258 8 13 28 13 138 3 179 -17 169 -19 136 25
-39 51 -256 247 -327 295 -84 58 -228 123 -323 147 -102 26 -103 26 -103 -5z"/>
<path d="M2005 3129 c48 -51 90 -111 134 -189 112 -202 185 -321 223 -362 l37
-40 70 4 c38 2 73 7 77 11 10 10 -41 82 -168 234 -128 154 -312 335 -388 382
l-55 34 70 -74z"/>
<path d="M2390 3133 c0 -35 70 -217 92 -241 45 -49 293 -220 304 -210 4 5 -41
127 -90 239 -19 44 -71 91 -190 170 -94 62 -116 70 -116 42z"/>
<path d="M9553 2856 c-51 -34 -102 -71 -114 -82 -23 -19 -132 -237 -144 -286
-5 -21 -3 -28 7 -28 7 0 72 33 143 73 l130 74 47 149 c25 82 47 152 47 157 2
17 -30 2 -116 -57z"/>
<path d="M8391 2705 c-189 -194 -258 -319 -269 -484 l-5 -84 109 6 c204 10
387 95 638 295 82 66 76 72 -41 47 -43 -9 -118 -19 -168 -22 l-90 -5 -35 36
c-31 33 -35 43 -38 104 -3 59 12 160 33 215 15 38 -17 12 -134 -108z"/>
<path d="M9525 2408 c-214 -215 -317 -332 -381 -433 l-19 -30 35 28 c55 43
165 118 285 192 226 141 241 157 304 325 52 141 56 160 34 160 -9 0 -126 -109
-258 -242z"/>
<path d="M3458 2570 c-27 -27 -30 -36 -26 -74 14 -120 194 -314 443 -478 177
-117 242 -154 251 -146 3 3 -20 41 -51 84 -106 147 -126 209 -82 256 58 62
125 77 271 59 49 -6 92 -9 94 -6 7 7 -161 113 -271 169 -219 112 -388 166
-525 166 -69 0 -76 -2 -104 -30z"/>
<path d="M7850 2385 c-215 -123 -410 -278 -449 -358 -12 -25 -21 -63 -21 -90
0 -40 5 -53 35 -86 20 -21 51 -46 71 -56 130 -61 386 -27 620 84 102 49 208
115 233 145 12 14 7 16 -50 17 -155 2 -415 15 -426 22 -33 20 -1 149 72 291
25 49 45 90 45 92 0 11 -25 -1 -130 -61z"/>
<path d="M2765 2430 c3 -6 39 -34 78 -64 97 -71 159 -140 246 -269 40 -60 89
-126 108 -148 l35 -39 99 0 c59 0 99 4 99 10 0 18 -140 169 -246 265 -97 87
-170 138 -281 194 -65 33 -145 62 -138 51z"/>
<path d="M3090 2428 c0 -22 106 -149 163 -196 53 -43 189 -115 241 -128 26 -6
27 -5 17 14 -27 50 -134 173 -176 202 -48 33 -184 103 -222 115 -16 4 -23 2
-23 -7z"/>
<path d="M8820 2170 c-58 -16 -131 -34 -163 -40 l-58 -12 -76 -116 c-41 -64
-89 -140 -105 -169 -37 -65 -36 -65 117 -22 150 42 176 58 254 164 87 116 151
209 151 218 0 9 5 10 -120 -23z"/>
<path d="M4295 2130 c-93 -8 -122 -21 -131 -55 -11 -44 6 -78 75 -145 77 -76
197 -153 379 -244 120 -60 335 -156 350 -156 4 0 -39 46 -94 103 -129 130
-134 138 -134 209 0 79 14 91 137 118 149 33 172 40 178 49 7 12 -151 74 -240
95 -149 34 -325 43 -520 26z"/>
<path d="M7165 2079 c-193 -65 -371 -172 -439 -266 -72 -98 -68 -210 9 -248
36 -18 60 -20 255 -20 141 1 236 5 275 14 162 36 429 121 380 121 -6 0 -90 13
-189 30 -188 31 -243 50 -290 99 -32 34 -36 23 60 178 35 55 64 106 64 112 0
17 -28 13 -125 -20z"/>
<path d="M6530 1899 c-206 -43 -479 -152 -620 -247 -49 -33 -55 -41 -58 -75
-2 -27 2 -45 15 -59 29 -33 132 -75 239 -98 130 -28 439 -38 649 -21 223 18
240 26 123 55 -167 42 -380 106 -417 126 -33 16 -41 26 -41 48 0 56 70 133
205 227 43 30 80 57 83 60 12 11 -89 2 -178 -16z"/>
<path d="M5260 1891 c-127 -28 -280 -90 -308 -124 -19 -22 -6 -42 68 -102 183
-150 411 -233 768 -280 28 -4 52 -3 52 2 0 4 -45 39 -100 77 -108 74 -170 135
-170 166 0 52 161 167 293 210 24 7 35 16 30 21 -16 16 -218 38 -388 44 -134
4 -174 2 -245 -14z"/>
<path d="M3915 1799 c10 -24 141 -122 207 -156 59 -30 134 -51 144 -40 7 7
-79 105 -116 132 -59 43 -247 94 -235 64z"/>
<path d="M7972 1669 l-123 -19 -161 -137 -161 -138 114 -3 c151 -4 228 9 275
44 48 37 234 244 234 261 0 17 -23 16 -178 -8z"/>
<path d="M4670 1481 c41 -32 170 -98 237 -120 38 -13 87 -21 125 -21 l63 1
-35 30 c-71 61 -207 108 -350 123 l-65 6 25 -19z"/>
<path d="M4236 1352 c-4 -7 6 -13 26 -16 133 -22 169 -30 232 -53 39 -14 128
-54 198 -89 l128 -64 128 0 c96 0 133 4 148 14 18 14 12 18 -86 64 -129 61
-283 119 -353 133 -82 15 -413 24 -421 11z"/>
<path d="M6850 1297 c-36 -13 -107 -45 -158 -72 -111 -57 -111 -59 31 -104
156 -50 161 -48 404 101 81 50 111 73 101 79 -8 4 -81 11 -164 14 -140 6 -153
5 -214 -18z"/>
<path d="M5767 1274 c-32 -7 -67 -19 -78 -25 -21 -11 -21 -11 7 -41 16 -16 70
-50 119 -75 l90 -45 105 5 c123 7 213 24 207 40 -5 17 -205 125 -261 142 -60
18 -112 18 -189 -1z"/>
<path d="M7785 1241 c-320 -82 -475 -135 -635 -217 -84 -43 -206 -131 -197
-141 3 -3 54 14 113 37 141 55 205 67 446 85 329 24 300 17 367 95 50 58 100
125 125 168 13 22 -62 13 -219 -27z"/>
<path d="M5230 1085 c-8 -2 -36 -7 -62 -10 -27 -3 -48 -10 -48 -14 0 -5 36
-14 80 -20 80 -12 189 -45 390 -116 99 -36 108 -37 158 -27 30 6 79 23 110 37
66 30 62 40 -32 74 -152 56 -244 73 -416 76 -91 2 -172 2 -180 0z"/>
<path d="M6275 964 c-95 -21 -272 -80 -315 -105 l-35 -20 35 5 c19 2 94 12
167 22 127 17 137 17 255 -1 68 -10 163 -20 211 -23 79 -4 93 -1 140 22 70 34
131 86 118 99 -6 6 -107 11 -258 13 -198 3 -262 1 -318 -12z"/>
</g>
</svg>
